Coordinates
version=1
nRows=10
nColumns=38
inDegrees=no

Units are S.I. units (second, meters, Newtons, ...)
If the header above contains a line with 'inDegrees', this indicates whether rotational values are in degrees (yes) or radians (no).

endheader
time	pelvis_tilt	pelvis_list	pelvis_rotation	pelvis_tx	pelvis_ty	pelvis_tz	hip_flexion_r	hip_adduction_r	hip_rotation_r	knee_angle_r	ankle_angle_r	subtalar_angle_r	mtp_angle_r	hip_flexion_l	hip_adduction_l	hip_rotation_l	knee_angle_l	ankle_angle_l	subtalar_angle_l	mtp_angle_l	lumbar_extension	lumbar_bending	lumbar_rotation	arm_flex_r	arm_add_r	arm_rot_r	elbow_flex_r	pro_sup_r	wrist_flex_r	wrist_dev_r	arm_flex_l	arm_add_l	arm_rot_l	elbow_flex_l	pro_sup_l	wrist_flex_l	wrist_dev_l
0.166667	-0.0340374	0.018717	-0.0463601	1.08128	1.01831	-0.312932	0.489107	0.0244794	-0.0532231	-0.389457	-0.224848	0.0220883	5.84335e-05	-0.00483923	0.128554	0.0759015	-0.846522	-0.284586	-0.00697599	0.000132011	-0.134374	0.0285043	-0.108622	-0.795023	-0.0614159	-0.315825	1.21191	1.216	0.0224468	-0.0319225	-0.515611	-0.254708	0.0854396	2.32981	1.62517	0.0137847	-0.0298775
0.175	-0.0207701	0.0170743	-0.0468378	1.0823	1.01492	-0.312975	0.475315	0.0335667	-0.0193157	-0.432554	-0.18108	0.0220883	5.84335e-05	0.00125672	0.135721	0.0827892	-0.905574	-0.254052	-0.00697599	0.000132011	-0.148156	0.0310901	-0.106449	-0.789169	-0.0688852	-0.308946	1.21505	1.21236	0.0224468	-0.0319225	-0.531091	-0.253005	0.081144	2.31815	1.63447	0.0137847	-0.0298775
0.183333	-0.00852392	0.0153261	-0.0467548	1.08313	1.01082	-0.312961	0.462239	0.0426289	0.00968014	-0.476025	-0.130331	0.0220883	5.84335e-05	0.0100899	0.140679	0.0872365	-0.965149	-0.225203	-0.00697599	0.000132011	-0.160983	0.033733	-0.104092	-0.781189	-0.076597	-0.30064	1.2168	1.2088	0.0224468	-0.0319225	-0.546256	-0.251106	0.0763493	2.30395	1.64323	0.0137847	-0.0298775
0.191667	0.00267197	0.0134672	-0.0461395	1.08375	1.00609	-0.312894	0.449911	0.0516747	0.0337724	-0.51979	-0.0729871	0.0220883	5.84335e-05	0.0216892	0.143411	0.0892478	-1.02521	-0.198073	-0.00697599	0.000132011	-0.17284	0.0364415	-0.101509	-0.771056	-0.0845387	-0.290929	1.21714	1.20541	0.0224468	-0.0319225	-0.561065	-0.249005	0.0710421	2.28718	1.65144	0.0137847	-0.0298775
0.2	0.012741	0.0114581	-0.0450799	1.08413	1.00079	-0.312775	0.43841	0.0607499	0.0530391	-0.563619	-0.0101686	0.0220883	5.84335e-05	0.0361307	0.143864	0.088861	-1.08565	-0.172746	-0.00697599	0.000132011	-0.18369	0.0392545	-0.0985676	-0.75869	-0.0926726	-0.279882	1.21595	1.2025	0.0224468	-0.0319225	-0.575393	-0.246679	0.0651913	2.26769	1.65906	0.0137847	-0.0298775
0.208333	0.0215663	0.00920174	-0.0437495	1.08425	0.99501	-0.312601	0.427843	0.0699614	0.0677104	-0.607101	0.0562094	0.0220883	5.84335e-05	0.0535182	0.141937	0.0861518	-1.14624	-0.14933	-0.00697599	0.000132011	-0.193489	0.0422582	-0.0950145	-0.743938	-0.100941	-0.267622	1.21306	1.20053	0.0224468	-0.0319225	-0.589003	-0.244069	0.0587581	2.24521	1.66601	0.0137847	-0.0298775
0.216667	0.0290147	0.0065342	-0.0424129	1.0841	0.988845	-0.312367	0.418297	0.0794832	0.0782446	-0.649684	0.123679	0.0220883	5.84335e-05	0.0739422	0.137488	0.0812465	-1.20659	-0.12791	-0.00697599	0.000132011	-0.202216	0.0455916	-0.0904806	-0.726592	-0.109278	-0.254309	1.20827	1.20004	0.0224468	-0.0319225	-0.601553	-0.24107	0.0517278	2.21937	1.67217	0.0137847	-0.0298775
0.225	0.034982	0.00323756	-0.0414055	1.08365	0.982423	-0.312069	0.409776	0.089524	0.0853463	-0.690721	0.189625	0.0220883	5.84335e-05	0.0974231	0.130376	0.074333	-1.26618	-0.108523	-0.00697599	0.000132011	-0.209895	0.0494293	-0.084524	-0.70643	-0.117623	-0.240136	1.20147	1.20153	0.0224468	-0.0319225	-0.612636	-0.237529	0.0441506	2.18975	1.67741	0.0137847	-0.0298775
0.233333	0.0394519	-0.000904751	-0.0410888	1.08289	0.975905	-0.311703	0.402143	0.10026	0.0899155	-0.729534	0.25168	0.0220883	5.84335e-05	0.123849	0.120516	0.0656714	-1.32431	-0.0911458	-0.00697599	0.000132011	-0.216618	0.0539427	-0.0767058	-0.683286	-0.125922	-0.225321	1.19269	1.2053	0.0224468	-0.0319225	-0.621849	-0.233258	0.03617	2.15598	1.68162	0.0137847	-0.0298775
0.241667	0.0425218	-0.00602087	-0.0417858	1.08179	0.969482	-0.311275	0.395079	0.111744	0.0929358	-0.765444	0.308021	0.0220883	5.84335e-05	0.152929	0.107963	0.0556	-1.38017	-0.0757109	-0.00697599	0.000132011	-0.222558	0.0592406	-0.0666873	-0.657125	-0.134118	-0.21012	1.18226	1.21141	0.0224468	-0.0319225	-0.628883	-0.228067	0.0280121	2.11786	1.68481	0.0137847	-0.0298775
